# xmcd
#
# Track frame offsets:
#	150
#	18248
#	39687
#	59364
#	73951
#	91232
#	117571
#	138033
#	165359
#	185867
#	209609
#	236060
#	255620
#
# Disc length: 3708 seconds
#
# Revision: 0
# Processed by: cddbd v1.5.2PL0 Copyright (c) Steve Scherf et al.
# Submitted via: EasyCDDAExtractor 5.0.4.1
#
DISCID=be0e7a0d
DTITLE=Calvin Owen Blues Orchestra - Best of Calvin Owens Orchestra
DYEAR=1900
DGENRE=Blues
TTITLE0=Texas Stomp
TTITLE1=Woke Up Screaming
TTITLE2=Todo Mi Culpa
TTITLE3=Everything Is Everything
TTITLE4=Double Dealing
TTITLE5=Blues I Have for You
TTITLE6=Take Me to the Zydeco
TTITLE7=One of Those Nights
TTITLE8=Mr. Head
TTITLE9=Everybody Lives the Blues
TTITLE10=Texas Red Shuffle
TTITLE11=Dont' You Want a Man Like Me
TTITLE12=True Blue
EXTD=
EXTT0=
EXTT1=
EXTT2=
EXTT3=
EXTT4=
EXTT5=
EXTT6=
EXTT7=
EXTT8=
EXTT9=
EXTT10=
EXTT11=
EXTT12=
PLAYORDER=
